<svg xmlns="http://www.w3.org/2000/svg" xmlns:xlink="http://www.w3.org/1999/xlink" width="500" zoomAndPan="magnify" viewBox="0 0 375 374.999991" height="500" preserveAspectRatio="xMidYMid meet" version="1.0"><path fill="#7b91b8" d="M 82.304688 80.835938 C 82.304688 80.835938 52.175781 83.714844 44.851562 90.285156 C 37.527344 96.859375 73.742188 316.972656 75.511719 322.710938 C 77.285156 328.445312 89.082031 327.570312 95.542969 327.332031 C 102.007812 327.097656 254.625 300.632812 259.230469 298.457031 C 263.839844 296.285156 264.199219 290.289062 264.285156 286.492188 C 264.367188 282.695312 232.160156 70.386719 229.730469 68.160156 C 227.300781 65.929688 219.125 63.960938 212.417969 65.160156 C 205.710938 66.359375 176.152344 69.484375 176.152344 69.484375 Z M 82.304688 80.835938 " fill-opacity="1" fill-rule="nonzero"/><path fill="#ffffff" d="M 91.605469 95.824219 C 91.605469 95.824219 65.390625 98.328125 59.015625 104.046875 C 52.644531 109.765625 84.15625 301.296875 85.695312 306.289062 C 87.238281 311.28125 97.503906 310.515625 103.125 310.3125 C 108.75 310.105469 241.546875 287.078125 245.554688 285.183594 C 249.566406 283.289062 249.878906 278.074219 249.953125 274.769531 C 250.027344 271.46875 222 86.738281 219.882812 84.792969 C 217.769531 82.847656 210.65625 81.136719 204.820312 82.183594 C 198.984375 83.230469 173.265625 85.949219 173.265625 85.949219 Z M 91.605469 95.824219 " fill-opacity="1" fill-rule="nonzero"/><path fill="#dc7e61" d="M 106.203125 60.65625 C 106.203125 60.65625 88.644531 64.570312 84.191406 66.546875 C 79.742188 68.527344 82.332031 75.066406 82.304688 80.835938 C 82.277344 86.609375 82.804688 87.988281 89.289062 87.929688 C 95.773438 87.871094 181.238281 75.792969 184.226562 73.628906 C 187.214844 71.46875 186.722656 52.414062 181.574219 51.59375 C 176.425781 50.769531 106.203125 60.65625 106.203125 60.65625 Z M 106.203125 60.65625 " fill-opacity="1" fill-rule="nonzero"/><path fill="#dc7e61" d="M 147.792969 41.21875 C 145.179688 37.476562 126.484375 39.453125 117.664062 44.839844 C 108.847656 50.226562 116.5625 60.390625 116.5625 60.390625 C 116.5625 60.390625 142.722656 57.511719 146.160156 56.828125 C 149.59375 56.144531 150.410156 44.957031 147.792969 41.21875 Z M 137.820312 50.449219 C 137.671875 51.269531 137.324219 51.992188 136.777344 52.621094 C 136.765625 52.640625 136.753906 52.660156 136.738281 52.675781 C 136.539062 52.90625 136.324219 53.117188 136.097656 53.316406 C 135.90625 53.535156 135.699219 53.738281 135.472656 53.917969 C 134.589844 54.585938 133.601562 54.996094 132.507812 55.148438 C 131.570312 55.273438 130.648438 55.195312 129.742188 54.910156 C 129.445312 54.835938 129.15625 54.742188 128.871094 54.628906 L 127.476562 53.820312 C 126.613281 53.15625 125.96875 52.324219 125.542969 51.324219 L 125.105469 49.773438 C 124.949219 48.929688 125.015625 48.105469 125.308594 47.296875 C 125.449219 46.472656 125.789062 45.738281 126.328125 45.09375 C 126.398438 45 126.472656 44.917969 126.546875 44.828125 C 126.621094 44.71875 126.6875 44.609375 126.769531 44.5 L 127.898438 43.421875 L 127.964844 43.378906 C 128.589844 42.871094 129.304688 42.554688 130.101562 42.421875 C 130.613281 42.214844 131.144531 42.15625 131.6875 42.238281 C 132.53125 42.175781 133.332031 42.332031 134.085938 42.707031 L 135.441406 43.535156 C 135.46875 43.554688 135.496094 43.578125 135.523438 43.601562 C 135.9375 43.984375 136.332031 44.394531 136.703125 44.820312 C 136.722656 44.847656 136.746094 44.875 136.765625 44.902344 C 137.089844 45.363281 137.367188 45.855469 137.601562 46.371094 C 137.613281 46.394531 137.621094 46.414062 137.632812 46.4375 C 137.777344 46.957031 137.914062 47.476562 138.046875 48 C 138.195312 48.835938 138.121094 49.65625 137.820312 50.449219 Z M 137.820312 50.449219 " fill-opacity="1" fill-rule="nonzero"/><path fill="#f2cf5e" d="M 87.820312 136.132812 C 87.820312 136.132812 76.808594 138.011719 75.734375 146.605469 C 74.660156 155.199219 81.105469 161.910156 92.386719 159.226562 C 103.664062 156.539062 113.332031 131.570312 87.820312 136.132812 Z M 87.820312 136.132812 " fill-opacity="1" fill-rule="nonzero"/><path fill="#f2cf5e" d="M 93.78125 172.910156 C 93.78125 172.910156 82.769531 174.789062 81.695312 183.378906 C 80.621094 191.972656 87.066406 198.6875 98.347656 196 C 109.625 193.316406 119.292969 168.34375 93.78125 172.910156 Z M 93.78125 172.910156 " fill-opacity="1" fill-rule="nonzero"/><path fill="#f2cf5e" d="M 99.742188 209.683594 C 99.742188 209.683594 88.730469 211.5625 87.65625 220.15625 C 86.582031 228.75 93.027344 235.460938 104.304688 232.777344 C 115.585938 230.089844 125.253906 205.121094 99.742188 209.683594 Z M 99.742188 209.683594 " fill-opacity="1" fill-rule="nonzero"/><path fill="#f2cf5e" d="M 105.699219 246.460938 C 105.699219 246.460938 94.691406 248.339844 93.617188 256.933594 C 92.542969 265.523438 98.988281 272.238281 110.265625 269.550781 C 121.546875 266.867188 131.214844 241.894531 105.699219 246.460938 Z M 105.699219 246.460938 " fill-opacity="1" fill-rule="nonzero"/><path fill="#dc7e61" d="M 107.703125 118.148438 C 107.039062 118.015625 106.414062 118.128906 105.835938 118.484375 C 105.574219 118.660156 105.351562 118.878906 105.167969 119.140625 C 104.980469 119.324219 104.816406 119.527344 104.675781 119.75 C 104.496094 120.003906 104.335938 120.273438 104.167969 120.539062 C 103.8125 121.101562 103.460938 121.660156 103.101562 122.21875 C 102.390625 123.335938 101.667969 124.445312 100.933594 125.554688 C 99.429688 127.824219 97.890625 130.074219 96.316406 132.300781 C 93.652344 136.058594 90.886719 139.738281 88.085938 143.386719 C 87.015625 142.414062 85.949219 141.4375 84.910156 140.429688 C 83.976562 139.519531 82.976562 138.664062 81.992188 137.804688 C 81.246094 137.15625 80.351562 136.703125 79.617188 136.039062 C 79.464844 135.902344 79.289062 135.828125 79.082031 135.820312 C 78.875 135.8125 78.691406 135.875 78.53125 136 C 78.367188 136.128906 78.265625 136.292969 78.226562 136.496094 C 78.1875 136.699219 78.21875 136.890625 78.316406 137.070312 C 78.820312 138 79.121094 138.992188 79.667969 139.90625 C 80.476562 141.261719 81.378906 142.546875 82.371094 143.769531 C 83.152344 144.726562 83.941406 145.671875 84.746094 146.605469 C 85.101562 147.0625 85.488281 147.492188 85.90625 147.894531 C 86.578125 148.460938 87.519531 148.535156 88.335938 148.707031 C 88.765625 148.820312 89.191406 148.816406 89.621094 148.703125 C 90.046875 148.585938 90.417969 148.375 90.734375 148.0625 C 94.261719 143.941406 97.558594 139.640625 100.625 135.164062 C 102.128906 133.042969 103.601562 130.902344 105.042969 128.742188 C 106.640625 126.496094 108.105469 124.167969 109.429688 121.75 C 109.515625 121.578125 109.578125 121.398438 109.621094 121.210938 C 109.667969 121.023438 109.6875 120.835938 109.6875 120.644531 C 109.691406 120.449219 109.667969 120.261719 109.628906 120.074219 C 109.585938 119.886719 109.523438 119.707031 109.4375 119.53125 C 109.355469 119.359375 109.253906 119.199219 109.136719 119.046875 C 109.015625 118.898438 108.878906 118.761719 108.730469 118.640625 C 108.582031 118.523438 108.417969 118.421875 108.246094 118.335938 C 108.074219 118.253906 107.890625 118.191406 107.703125 118.148438 Z M 107.703125 118.148438 " fill-opacity="1" fill-rule="nonzero"/><path fill="#dc7e61" d="M 111.527344 156.929688 C 110.105469 156.417969 108.839844 157.226562 108.234375 158.480469 C 106.78125 161.488281 105.179688 164.402344 103.46875 167.269531 C 102.167969 169.445312 100.789062 171.570312 99.328125 173.644531 C 98.886719 174.273438 98.4375 174.894531 97.980469 175.515625 C 97.851562 175.6875 97.722656 175.855469 97.59375 176.027344 C 97.273438 175.625 96.960938 175.214844 96.640625 174.832031 C 95.964844 174.03125 95.289062 173.230469 94.605469 172.4375 C 93.046875 170.589844 91.375 168.851562 89.585938 167.222656 C 88.65625 166.382812 87.113281 167.667969 87.6875 168.746094 C 89.734375 172.46875 92.007812 176.042969 94.507812 179.476562 C 95.097656 180.320312 95.574219 181.097656 96.574219 181.480469 C 97.789062 181.953125 98.878906 181.933594 99.90625 181.042969 C 101.035156 180.0625 101.917969 178.53125 102.800781 177.332031 C 106.753906 171.941406 110.179688 166.242188 113.082031 160.222656 C 113.6875 158.96875 112.738281 157.363281 111.527344 156.929688 Z M 111.527344 156.929688 " fill-opacity="1" fill-rule="nonzero"/><path fill="#dc7e61" d="M 122.5 192.007812 C 122.199219 191.867188 121.886719 191.785156 121.554688 191.761719 C 121.222656 191.742188 120.898438 191.78125 120.585938 191.886719 C 120.269531 191.988281 119.984375 192.148438 119.730469 192.363281 C 119.476562 192.578125 119.273438 192.832031 119.117188 193.125 C 115.976562 198.25 112.480469 203.121094 108.625 207.738281 C 107.214844 209.425781 105.757812 211.074219 104.257812 212.683594 C 103.460938 213.535156 102.652344 214.378906 101.828125 215.210938 C 101.507812 215.535156 101.121094 216.023438 100.707031 216.464844 C 99.925781 215.496094 99.234375 214.414062 98.546875 213.4375 C 97.324219 211.714844 96.128906 209.964844 95.011719 208.171875 C 93.886719 206.367188 90.613281 207.808594 91.5625 209.828125 C 92.617188 212.042969 93.8125 214.179688 95.152344 216.234375 C 95.804688 217.238281 96.453125 218.246094 97.140625 219.226562 C 97.816406 220.195312 98.492188 221.300781 99.691406 221.6875 C 101.941406 222.410156 103.71875 220.117188 105.109375 218.742188 C 106.453125 217.410156 107.765625 216.046875 109.050781 214.65625 C 114.527344 208.707031 119.382812 202.285156 123.613281 195.394531 C 124.328125 194.234375 123.640625 192.585938 122.5 192.007812 Z M 122.5 192.007812 " fill-opacity="1" fill-rule="nonzero"/><path fill="#dc7e61" d="M 124.132812 232.9375 C 123.839844 232.808594 123.535156 232.738281 123.214844 232.726562 C 122.894531 232.71875 122.585938 232.769531 122.285156 232.882812 C 121.988281 232.992188 121.71875 233.15625 121.484375 233.375 C 121.25 233.589844 121.0625 233.84375 120.929688 234.132812 C 118.652344 239.808594 115.773438 245.160156 112.289062 250.1875 C 111.871094 250.773438 111.449219 251.351562 111.019531 251.929688 C 110.796875 252.226562 110.46875 252.574219 110.199219 252.925781 C 110.121094 252.859375 110.042969 252.796875 109.96875 252.730469 C 109.476562 252.292969 109.007812 251.832031 108.5625 251.347656 C 107.75 250.46875 107.011719 249.523438 106.359375 248.519531 C 105.578125 247.324219 105.089844 245.851562 104.125 244.808594 C 103.875 244.546875 103.574219 244.367188 103.226562 244.265625 C 102.878906 244.164062 102.527344 244.160156 102.175781 244.246094 L 101.859375 244.324219 C 101.617188 244.390625 101.394531 244.496094 101.195312 244.648438 C 100.996094 244.800781 100.832031 244.984375 100.707031 245.203125 C 100.578125 245.417969 100.496094 245.652344 100.460938 245.898438 C 100.425781 246.148438 100.4375 246.394531 100.496094 246.636719 C 100.542969 246.789062 100.59375 246.941406 100.640625 247.09375 C 100.742188 247.40625 100.917969 247.667969 101.171875 247.875 C 101.214844 247.972656 101.253906 248.070312 101.296875 248.167969 C 101.449219 248.515625 101.609375 248.863281 101.777344 249.203125 C 102.085938 249.832031 102.421875 250.445312 102.78125 251.046875 C 102.878906 251.210938 102.980469 251.375 103.082031 251.535156 L 107.777344 256.996094 C 108.085938 257.285156 108.417969 257.542969 108.773438 257.765625 C 109.5625 258.226562 110.398438 258.355469 111.289062 258.152344 C 112.828125 257.757812 113.796875 256.3125 114.71875 255.128906 C 115.566406 254.046875 116.371094 252.925781 117.152344 251.792969 C 120.554688 246.929688 123.28125 241.714844 125.328125 236.140625 C 125.453125 235.847656 125.519531 235.542969 125.523438 235.226562 C 125.53125 234.90625 125.480469 234.601562 125.371094 234.300781 C 125.257812 234.003906 125.097656 233.738281 124.882812 233.5 C 124.667969 233.265625 124.417969 233.078125 124.132812 232.9375 Z M 124.132812 232.9375 " fill-opacity="1" fill-rule="nonzero"/><path fill="#dc7e61" d="M 226.800781 237.710938 C 220.917969 237.195312 214.902344 238.539062 209.128906 239.53125 C 203.824219 240.445312 198.53125 241.410156 193.230469 242.351562 C 181.847656 244.375 170.460938 246.410156 159.082031 248.453125 C 156.019531 249.003906 152.960938 249.578125 149.910156 250.195312 C 146.210938 250.949219 142.429688 251.507812 138.824219 252.648438 C 138.582031 252.726562 138.386719 252.871094 138.238281 253.070312 C 138.085938 253.273438 138.003906 253.5 137.992188 253.75 C 134.921875 254.25 135.339844 259.324219 138.617188 258.976562 C 151.171875 257.648438 163.460938 254.992188 175.789062 252.355469 C 181.925781 251.042969 188.074219 249.765625 194.269531 248.71875 C 199.730469 247.792969 205.222656 247.222656 210.71875 246.539062 C 216.726562 245.792969 222.464844 244.503906 227.734375 241.421875 C 229.277344 240.527344 228.507812 237.863281 226.800781 237.710938 Z M 226.800781 237.710938 " fill-opacity="1" fill-rule="nonzero"/><path fill="#dc7e61" d="M 207.015625 197.789062 C 205.996094 197.742188 204.992188 197.851562 204.003906 198.113281 C 202.761719 198.34375 201.527344 198.613281 200.292969 198.875 C 190.777344 200.855469 181.257812 202.835938 171.742188 204.808594 C 160.867188 207.058594 149.960938 209.230469 139.183594 211.910156 C 138.542969 212.046875 138.109375 212.417969 137.871094 213.023438 C 137.417969 213.539062 137.242188 214.132812 137.335938 214.8125 C 137.378906 215.132812 137.480469 215.429688 137.640625 215.710938 C 137.800781 215.988281 138.007812 216.230469 138.261719 216.425781 C 138.515625 216.625 138.796875 216.769531 139.109375 216.855469 C 139.417969 216.941406 139.734375 216.96875 140.054688 216.929688 C 159.191406 213.148438 178.433594 209.445312 197.9375 208.199219 C 202.117188 207.929688 207.304688 207.964844 209.425781 203.585938 C 210.570312 201.214844 210.023438 198.144531 207.015625 197.789062 Z M 207.015625 197.789062 " fill-opacity="1" fill-rule="nonzero"/><path fill="#dc7e61" d="M 208.425781 165.386719 C 203.785156 162.953125 198.539062 164.492188 193.730469 165.492188 C 188.511719 166.582031 183.296875 167.679688 178.082031 168.78125 C 168.988281 170.703125 159.902344 172.664062 150.828125 174.65625 L 150.679688 174.683594 C 148.105469 175.003906 145.527344 175.328125 142.949219 175.648438 C 139.761719 176.050781 136.570312 176.453125 133.382812 176.859375 C 130.71875 177.195312 128.125 177.683594 126.101562 179.59375 C 125.734375 179.929688 125.5 180.339844 125.390625 180.824219 C 125.378906 180.828125 125.367188 180.832031 125.351562 180.835938 C 124.160156 181.273438 124.25 183.277344 125.6875 183.179688 C 125.863281 183.167969 126.035156 183.148438 126.210938 183.132812 C 126.511719 183.414062 126.863281 183.609375 127.257812 183.726562 C 127.652344 183.839844 128.054688 183.863281 128.460938 183.789062 C 136.546875 182.28125 144.640625 180.792969 152.734375 179.320312 C 155.246094 178.992188 157.761719 178.660156 160.273438 178.332031 C 171.671875 176.832031 183.070312 175.347656 194.46875 173.882812 C 197.296875 173.519531 200.199219 173.308594 202.992188 172.722656 C 205.558594 172.183594 208.117188 171.09375 209.351562 168.625 C 209.5 168.347656 209.589844 168.054688 209.621094 167.742188 C 209.65625 167.429688 209.628906 167.121094 209.542969 166.820312 C 209.457031 166.515625 209.316406 166.242188 209.121094 165.996094 C 208.929688 165.746094 208.695312 165.542969 208.425781 165.386719 Z M 208.425781 165.386719 " fill-opacity="1" fill-rule="nonzero"/><path fill="#dc7e61" d="M 197.765625 127.804688 C 195.726562 126.621094 193.3125 126.835938 191.082031 127.167969 C 186.851562 127.796875 182.628906 128.484375 178.40625 129.199219 C 178.335938 129.207031 178.265625 129.214844 178.195312 129.226562 C 173.5 129.8125 168.824219 130.527344 164.15625 131.277344 C 154.699219 132.792969 145.289062 134.566406 135.925781 136.597656 C 133.34375 137.15625 130.765625 137.734375 128.195312 138.339844 C 125.546875 138.960938 122.390625 139.308594 120.1875 141.054688 C 120.09375 141.140625 120.003906 141.226562 119.921875 141.320312 C 119.699219 141.382812 119.476562 141.4375 119.253906 141.5 C 119.019531 141.550781 118.824219 141.671875 118.671875 141.855469 C 118.519531 142.042969 118.441406 142.257812 118.441406 142.5 C 118.4375 142.738281 118.511719 142.953125 118.660156 143.144531 C 118.808594 143.332031 119 143.457031 119.234375 143.511719 C 119.394531 144.28125 119.824219 144.851562 120.511719 145.226562 C 122.660156 146.449219 125.183594 146.511719 127.578125 146.242188 C 130.226562 145.945312 132.871094 145.542969 135.515625 145.191406 C 141.210938 144.433594 146.90625 143.695312 152.601562 142.949219 C 163.34375 141.535156 174.089844 140.128906 184.835938 138.734375 C 187.59375 138.378906 190.355469 138.03125 193.117188 137.667969 C 195.5 137.355469 198.035156 136.699219 199.375 134.496094 C 199.546875 134.226562 199.691406 133.941406 199.808594 133.640625 C 199.921875 133.339844 200.007812 133.03125 200.058594 132.714844 C 200.113281 132.398438 200.132812 132.078125 200.125 131.757812 C 200.113281 131.4375 200.070312 131.121094 199.992188 130.808594 C 199.917969 130.496094 199.8125 130.195312 199.675781 129.902344 C 199.542969 129.613281 199.378906 129.335938 199.1875 129.078125 C 198.996094 128.820312 198.777344 128.585938 198.539062 128.371094 C 198.300781 128.15625 198.042969 127.96875 197.765625 127.804688 Z M 195.109375 132.292969 C 194.742188 132.511719 194.355469 132.667969 193.945312 132.769531 C 194.050781 132.621094 194.15625 132.472656 194.253906 132.308594 C 194.359375 132.117188 194.429688 131.917969 194.464844 131.703125 C 194.609375 131.714844 194.753906 131.738281 194.898438 131.769531 C 195.070312 131.832031 195.242188 131.910156 195.40625 131.996094 C 195.402344 131.996094 195.398438 131.996094 195.394531 132 C 195.3125 132.113281 195.214844 132.210938 195.105469 132.292969 Z M 195.109375 132.292969 " fill-opacity="1" fill-rule="nonzero"/><path fill="#dc7e61" d="M 314.253906 101.808594 C 314.253906 101.808594 309.097656 100.128906 305.386719 106.839844 C 301.671875 113.546875 305.027344 113.96875 307.335938 115.433594 C 309.640625 116.902344 324.949219 119.628906 326.625 118.578125 C 328.304688 117.53125 329.140625 110.402344 326.625 108.097656 C 324.109375 105.792969 314.253906 101.808594 314.253906 101.808594 Z M 314.253906 101.808594 " fill-opacity="1" fill-rule="nonzero"/><path fill="#7b91b8" d="M 305.363281 114.304688 C 304.730469 114.402344 304.117188 114.578125 303.527344 114.835938 C 302.9375 115.089844 302.390625 115.414062 301.882812 115.808594 C 301.378906 116.203125 300.929688 116.652344 300.539062 117.164062 C 300.148438 117.671875 299.828125 118.222656 299.578125 118.8125 C 297.6875 122.984375 271.128906 205.933594 269.453125 215.160156 C 267.773438 224.382812 274.484375 226.898438 278.121094 227.738281 C 281.753906 228.578125 288.464844 225.222656 289.300781 224.105469 C 290.140625 222.988281 324.109375 127.804688 325.367188 123.191406 C 326.625 118.578125 310.804688 113.523438 305.363281 114.304688 Z M 305.363281 114.304688 " fill-opacity="1" fill-rule="nonzero"/><path fill="#dc7e61" d="M 269.667969 221.144531 C 269.667969 221.144531 269.066406 228.121094 270.222656 232.839844 C 271.375 237.558594 277.351562 237.871094 278.503906 237.347656 C 279.65625 236.824219 289.300781 224.105469 289.300781 224.105469 Z M 269.667969 221.144531 " fill-opacity="1" fill-rule="nonzero"/><path fill="#7b91b8" d="M 274.335938 233.71875 C 273.121094 235.773438 272.355469 237.984375 272.042969 240.351562 C 271.554688 244.199219 269.859375 251.320312 270.5 251.484375 C 271.144531 251.648438 273.683594 249.765625 274.335938 245.507812 C 274.992188 241.25 278.59375 230.691406 274.335938 233.71875 Z M 274.335938 233.71875 " fill-opacity="1" fill-rule="nonzero"/><path fill="#7b91b8" d="M 325.4375 111.871094 C 325.4375 111.871094 333.546875 115.902344 334.382812 118.8125 C 335.222656 121.726562 328.304688 150.449219 326.414062 157.996094 C 324.527344 165.542969 322.636719 178.539062 319.914062 177.910156 C 317.191406 177.28125 317.820312 171.621094 318.871094 169.316406 C 319.921875 167.007812 330.402344 123.191406 329.773438 120.886719 C 329.144531 118.582031 321.945312 116.484375 325.4375 111.871094 Z M 325.4375 111.871094 " fill-opacity="1" fill-rule="nonzero"/><path fill="#7b91b8" d="M 314.253906 101.808594 C 314.253906 101.808594 314.246094 97.40625 317.972656 96.671875 C 321.703125 95.9375 324.988281 96.988281 325.441406 97.929688 C 325.894531 98.875 325.929688 105.585938 325.441406 107.210938 C 324.949219 108.832031 314.253906 101.808594 314.253906 101.808594 Z M 314.253906 101.808594 " fill-opacity="1" fill-rule="nonzero"/></svg>